<svg width="1228" height="145" viewBox="0 0 1228 145" fill="none" xmlns="http://www.w3.org/2000/svg">
<rect x="23" y="22" width="1182" height="100" rx="15" fill="url(#paint0_linear_609_91)"/>
<path d="M1175 122.087L1190.1 122.087C1198.38 122.087 1205.1 115.372 1205.1 107.087L1205.1 40.0001C1205.1 31.7158 1198.38 25 1190.1 25L1175 25" stroke="#663DDC" stroke-width="3" stroke-linecap="round" stroke-linejoin="round"/>
<g filter="url(#filter0_f_609_91)">
<path d="M1175 122.087L1190.1 122.087C1198.38 122.087 1205.1 115.372 1205.1 107.087L1205.1 40.0001C1205.1 31.7158 1198.38 25 1190.1 25L1175 25" stroke="#D6BEED" stroke-width="4.15309" stroke-linecap="round" stroke-linejoin="round"/>
</g>
<path d="M53.0972 120.087L38.0002 120.087C29.7159 120.087 23.0002 113.372 23.0002 105.087L23 38.0001C23 29.7158 29.7158 23 38 23L53.0972 23" stroke="#663DDC" stroke-width="3" stroke-linecap="round" stroke-linejoin="round"/>
<g filter="url(#filter1_f_609_91)">
<path d="M53.0972 120.087L38.0002 120.087C29.7159 120.087 23.0002 113.372 23.0002 105.087L23 38.0001C23 29.7158 29.7158 23 38 23L53.0972 23" stroke="#663DDC" stroke-width="4.15309" stroke-linecap="round" stroke-linejoin="round"/>
</g>
<path d="M285.81 53.8462H291.933V59.9424H288.092C287.34 59.9424 286.579 60.7122 285.81 62.252V89H279.687V59.9424C279.687 59.3158 281.728 57.2837 285.81 53.8462ZM294.994 59.9424V53.8462H301.09C301.735 53.8462 303.776 55.8783 307.213 59.9424V89H301.09V62.252C301.09 61.4821 300.329 60.7122 298.808 59.9424H294.994ZM317.284 89V53.8462H329.53V59.9424H323.407V68.375H329.53V74.4712H323.407V83.6558H329.53V89H317.284ZM331.813 59.9424V53.8462H344.811V59.9424H331.813ZM331.813 83.6558L344.811 83.6289V89H331.813V83.6558ZM331.732 68.375L338.688 68.3481V74.4712H331.732V68.375ZM350.666 82.877V53.8462H356.789V80.5942C356.789 82.116 357.8 82.877 359.823 82.877V89H356.789C356.144 89 354.103 86.959 350.666 82.877ZM379.696 80.5942V53.8462H385.819V82.877C385.819 83.5215 383.778 85.5625 379.696 89H376.662V82.877C378.685 82.877 379.696 82.116 379.696 80.5942ZM365.194 80.5942V64.5347H371.291V80.5942C371.291 82.116 372.311 82.877 374.352 82.877V89H371.291L368.256 86.7173L365.194 89H362.133V82.877C364.174 82.877 365.194 82.116 365.194 80.5942ZM409.076 89V53.8462H421.322V59.9424H415.199V68.375H421.322V74.4712H415.199V83.6558H421.322V89H409.076ZM423.605 59.9424V53.8462H436.603V59.9424H423.605ZM423.605 83.6558L436.603 83.6289V89H423.605V83.6558ZM423.524 68.375L430.48 68.3481V74.4712H423.524V68.375ZM442.86 89V53.8462H455.106V59.9424H448.983V68.375H455.106V74.4712H448.983V89H442.86ZM457.389 59.9424V53.8462H464.264C464.909 53.8462 466.95 55.8783 470.387 59.9424V63.7827L463.512 71.4097L470.387 79.0635V89H464.264V81.3462L457.389 73.7192V69.127L464.264 61.4731L461.981 59.9424H457.389ZM484.164 53.8462H490.287V59.9424H486.447L484.164 62.252V68.375H490.287V74.4712H484.164V89H478.041V59.9424L484.164 53.8462ZM492.57 59.9424V53.8462H499.445L505.568 59.9424V89H499.445V74.4712H492.57L492.597 68.3481L499.445 68.375V62.252L497.162 59.9424H492.57ZM528.476 82.9307V59.9424C528.476 59.3158 530.517 57.2837 534.599 53.8462H540.695V59.9424H536.881C536.111 59.9424 535.351 60.7122 534.599 62.252V80.6211C535.351 82.1608 536.111 82.9307 536.881 82.9307H540.695V89.0269H534.599C530.517 85.5894 528.476 83.5573 528.476 82.9307ZM549.879 80.6211V62.252C549.879 61.4821 549.11 60.7122 547.57 59.9424H543.004V53.8462H549.879C550.506 53.8462 552.547 55.8783 556.002 59.9424V82.9307C552.547 86.9948 550.506 89.0269 549.879 89.0269H543.004V82.9307H547.57C549.11 82.1608 549.879 81.391 549.879 80.6211ZM565.268 89V53.8462H577.514V59.9424H571.391V68.375H577.514V74.4712H571.391V89H565.268ZM579.796 59.9424V53.8462H592.794V59.9424H579.796ZM579.716 68.375L586.671 68.3481V74.4712H579.716V68.375ZM616.615 83.6558H622.738V89H610.492V53.8462H622.738V59.9424H616.615V83.6558ZM625.021 59.8887V53.8462H627.331L638.019 64.5347V78.3115L627.331 89H625.021V83.6558L631.896 76.002V66.8442L625.021 59.8887ZM646.049 89V53.8462H658.295V59.9424H652.172V68.375H658.295V74.4712H652.172V83.6558H658.295V89H646.049ZM660.578 59.9424V53.8462H673.576V59.9424H660.578ZM660.578 83.6558L673.576 83.6289V89H660.578V83.6558ZM660.497 68.375L667.453 68.3481V74.4712H660.497V68.375ZM678.598 63.7827V53.8462H684.721V61.4731L690.844 68.375V73.7192L684.721 80.5942V89H678.598V78.3115L685.5 70.6577C684.855 70.6577 682.554 68.366 678.598 63.7827ZM705.265 63.7827C701.308 68.366 699.008 70.6577 698.363 70.6577L705.265 78.3115V89H699.142V80.5942L693.019 73.7192V68.375L699.142 61.4731V53.8462H705.265V63.7827ZM723.876 59.9424V53.8462H751.403V59.9424H740.688V89H734.591V59.9424H723.876ZM759.11 89V53.8462H771.356V59.9424H765.233V68.375H771.356V74.4712H765.233V89H759.11ZM773.639 59.9424V53.8462H780.514C781.159 53.8462 783.2 55.8783 786.637 59.9424V63.7827L779.762 71.4097L786.637 79.0635V89H780.514V81.3462L773.639 73.7192V69.127L780.514 61.4731L778.231 59.9424H773.639ZM800.414 53.8462H806.537V59.9424H802.697L800.414 62.252V68.375H806.537V74.4712H800.414V89H794.291V59.9424L800.414 53.8462ZM808.82 59.9424V53.8462H815.695L821.818 59.9424V89H815.695V74.4712H808.82L808.847 68.3481L815.695 68.375V62.252L813.412 59.9424H808.82ZM838.012 83.6558H844.135V89H831.889V53.8462H844.135V59.9424H838.012V83.6558ZM846.417 59.8887V53.8462H848.727L859.416 64.5347V78.3115L848.727 89H846.417V83.6558L853.292 76.002V66.8442L846.417 59.8887ZM867.445 89V53.8462H873.568V89H867.445ZM889.682 53.8462H895.805V59.9424H891.964C891.212 59.9424 890.451 60.7122 889.682 62.252V89H883.559V59.9424C883.559 59.3158 885.6 57.2837 889.682 53.8462ZM898.866 59.9424V53.8462H904.962C905.607 53.8462 907.648 55.8783 911.085 59.9424V89H904.962V62.252C904.962 61.4821 904.201 60.7122 902.68 59.9424H898.866ZM926.5 53.8462H932.597V59.9424H928.783L926.5 62.1445V81.937L928.38 83.6558H932.597V89H926.017L920.377 83.6289V59.9424L926.5 53.8462ZM934.906 59.9424V53.8462H941.781L947.904 59.9424V63.7827H941.781V62.1445L939.472 59.9424H934.906ZM934.906 68.375H947.904V83.6289L941.781 89H934.906V83.6558H939.606L941.781 81.937V74.4712H934.906V68.375Z" fill="white"/>
<defs>
<filter id="filter0_f_609_91" x="1152.92" y="2.92346" width="74.25" height="141.24" filterUnits="userSpaceOnUse" color-interpolation-filters="sRGB">
<feFlood flood-opacity="0" result="BackgroundImageFix"/>
<feBlend mode="normal" in="SourceGraphic" in2="BackgroundImageFix" result="shape"/>
<feGaussianBlur stdDeviation="10" result="effect1_foregroundBlur_609_91"/>
</filter>
<filter id="filter1_f_609_91" x="0.923828" y="0.923462" width="74.25" height="141.24" filterUnits="userSpaceOnUse" color-interpolation-filters="sRGB">
<feFlood flood-opacity="0" result="BackgroundImageFix"/>
<feBlend mode="normal" in="SourceGraphic" in2="BackgroundImageFix" result="shape"/>
<feGaussianBlur stdDeviation="10" result="effect1_foregroundBlur_609_91"/>
</filter>
<linearGradient id="paint0_linear_609_91" x1="1205" y1="122" x2="23" y2="122" gradientUnits="userSpaceOnUse">
<stop stop-color="#542A8A" stop-opacity="0.67"/>
<stop offset="0.197163" stop-color="#9261C4" stop-opacity="0.67"/>
<stop offset="0.504685" stop-color="#9968CA" stop-opacity="0.0110581"/>
<stop offset="0.683531" stop-color="#9968CA" stop-opacity="0.67"/>
<stop offset="0.96711" stop-color="#542A8A" stop-opacity="0.67"/>
</linearGradient>
</defs>
</svg>
