<svg width="535" height="113" viewBox="0 0 535 113" fill="none" xmlns="http://www.w3.org/2000/svg">
<path d="M30 38C30 29.7157 36.7157 23 45 23H495.999C504.283 23 510.999 29.7157 510.999 38V75C510.999 83.2843 504.283 90 495.999 90H45C36.7157 90 30 83.2843 30 75V38Z" fill="url(#paint0_linear_602_89)"/>
<path d="M499 88.0486V88.0486C505.765 88.0486 511.248 82.5652 511.248 75.801L511.248 35.2477C511.248 28.4835 505.765 23 499 23V23" stroke="#9747E7" stroke-width="3" stroke-linecap="round" stroke-linejoin="round"/>
<g filter="url(#filter0_f_602_89)">
<path d="M499 88.0486V88.0486C505.765 88.0486 511.248 82.5652 511.248 75.801L511.248 35.2477C511.248 28.4835 505.765 23 499 23V23" stroke="#9747E7" stroke-width="4.15309" stroke-linecap="round" stroke-linejoin="round"/>
</g>
<path d="M42.2477 90.0486V90.0486C35.4835 90.0486 30.0001 84.5652 30.0001 77.801L30 37.2477C30 30.4835 35.4835 25 42.2477 25V25" stroke="#9747E7" stroke-width="3" stroke-linecap="round" stroke-linejoin="round"/>
<g filter="url(#filter1_f_602_89)">
<path d="M42.2477 90.0486V90.0486C35.4835 90.0486 30.0001 84.5652 30.0001 77.801L30 37.2477C30 30.4835 35.4835 25 42.2477 25V25" stroke="#9747E7" stroke-width="4.15309" stroke-linecap="round" stroke-linejoin="round"/>
</g>
<path d="M87.1045 70V50.8252H93.7842V54.1504H90.4443V58.75H93.7842V62.0752H90.4443V67.085L93.7842 67.0703V70H87.1045ZM95.0293 54.1504V50.8252H98.7793L102.119 54.1504V58.75L100.449 60.8301L102.119 62.5V66.6602L99.541 70H95.0293V67.0703L97.6367 67.085L98.7793 65.6055V63.335L97.5342 62.0752H95.0293V58.7646H97.7539L98.7793 57.3145V55.4102L97.5342 54.1504H95.0293ZM118.394 65.415V50.8252H121.733V66.6602C121.733 67.0117 120.62 68.125 118.394 70H114.644V67.0703L116.724 67.085C117.144 67.085 117.7 66.5283 118.394 65.415ZM109.678 65.415C110.371 66.5283 110.928 67.085 111.348 67.085L113.428 67.0703V70H109.678C107.451 68.125 106.338 67.0117 106.338 66.6602V50.8252H109.678V65.415ZM126.26 58.75V50.8252H129.6V57.4902L130.845 58.75H132.925V62.0752H129.6L126.26 58.75ZM126.26 64.5508L129.6 64.5801V65.8691L130.654 67.085H133.364V70H129.189L126.274 67.0703L126.26 64.5508ZM137.935 65.8252V62.0752H134.185V58.7354L137.935 58.75V50.8252H141.274V67.085L138.359 70H134.609V67.0703L136.514 67.085L137.935 65.8252ZM151.704 54.1504V50.8252H166.719V54.1504H160.874V70H157.549V54.1504H151.704ZM170.483 66.6895V54.1504C170.483 53.8086 171.597 52.7002 173.823 50.8252H177.148V54.1504H175.068C174.648 54.1504 174.233 54.5703 173.823 55.4102V65.4297C174.233 66.2695 174.648 66.6895 175.068 66.6895H177.148V70.0146H173.823C171.597 68.1396 170.483 67.0312 170.483 66.6895ZM182.158 65.4297V55.4102C182.158 54.9902 181.738 54.5703 180.898 54.1504H178.408V50.8252H182.158C182.5 50.8252 183.613 51.9336 185.498 54.1504V66.6895C183.613 68.9062 182.5 70.0146 182.158 70.0146H178.408V66.6895H180.898C181.738 66.2695 182.158 65.8496 182.158 65.4297ZM190.552 70V50.8252H193.892V58.75H197.231V61.665H193.892V70H190.552ZM202.227 55.0146V50.8252H205.566V55.8203L201.494 60.2734L205.566 64.5801V70H202.227V65.6055L198.477 61.6504V58.8086L202.227 55.0146ZM210.034 70V50.8252H216.714V54.1504H213.374V58.75H216.714V62.0752H213.374V67.085H216.714V70H210.034ZM217.959 54.1504V50.8252H225.049V54.1504H217.959ZM217.959 67.085L225.049 67.0703V70H217.959V67.085ZM217.915 58.75L221.709 58.7354V62.0752H217.915V58.75ZM231.626 50.8252H234.966V54.1504H232.871C232.461 54.1504 232.046 54.5703 231.626 55.4102V70H228.286V54.1504C228.286 53.8086 229.399 52.7002 231.626 50.8252ZM236.636 54.1504V50.8252H239.961C240.312 50.8252 241.426 51.9336 243.301 54.1504V70H239.961V55.4102C239.961 54.9902 239.546 54.5703 238.716 54.1504H236.636ZM259.604 50.8252L262.944 54.1504V56.2451H259.604V55.3516L258.345 54.1504H255.854V50.8252H259.604ZM251.313 62.1777L247.93 58.75V54.1504L251.27 50.8252H254.595V54.1504H252.515L251.27 55.4102V57.8125L252.515 58.75H254.595L254.609 62.1777H251.313ZM255.02 66.6895V70.0146H251.27L247.93 66.6895V64.5947H251.27V65.6348L252.324 66.748L255.02 66.6895ZM255.869 62.0898L255.854 58.75H259.678L262.534 61.2109V67.0703L259.663 70.0146H255.869V66.6895H257.949L259.194 65.4297V63.3496L257.861 62.0898H255.869ZM274.194 66.6895V54.1504C274.194 53.8086 275.308 52.7002 277.534 50.8252H280.859V54.1504H278.779C278.359 54.1504 277.944 54.5703 277.534 55.4102V65.4297C277.944 66.2695 278.359 66.6895 278.779 66.6895H280.859V70.0146H277.534C275.308 68.1396 274.194 67.0312 274.194 66.6895ZM285.869 65.4297V55.4102C285.869 54.9902 285.449 54.5703 284.609 54.1504H282.119V50.8252H285.869C286.211 50.8252 287.324 51.9336 289.209 54.1504V66.6895C287.324 68.9062 286.211 70.0146 285.869 70.0146H282.119V66.6895H284.609C285.449 66.2695 285.869 65.8496 285.869 65.4297ZM297.427 50.8252H300.767V54.1504H298.672C298.262 54.1504 297.847 54.5703 297.427 55.4102V70H294.087V54.1504C294.087 53.8086 295.2 52.7002 297.427 50.8252ZM302.437 54.1504V50.8252H305.762C306.113 50.8252 307.227 51.9336 309.102 54.1504V70H305.762V55.4102C305.762 54.9902 305.347 54.5703 304.517 54.1504H302.437ZM333.491 65.415V50.8252H336.831V66.6602C336.831 67.0117 335.718 68.125 333.491 70H329.741V67.0703L331.821 67.085C332.241 67.085 332.798 66.5283 333.491 65.415ZM324.775 65.415C325.469 66.5283 326.025 67.085 326.445 67.085L328.525 67.0703V70H324.775C322.549 68.125 321.436 67.0117 321.436 66.6602V50.8252H324.775V65.415ZM345.21 50.8252H348.55V54.1504H346.455C346.045 54.1504 345.63 54.5703 345.21 55.4102V70H341.87V54.1504C341.87 53.8086 342.983 52.7002 345.21 50.8252ZM350.22 54.1504V50.8252H353.545C353.896 50.8252 355.01 51.9336 356.885 54.1504V70H353.545V55.4102C353.545 54.9902 353.13 54.5703 352.3 54.1504H350.22ZM362.378 70V50.8252H365.718V70H362.378ZM382.153 50.8252L385.493 54.1504V56.2451H382.153V55.3516L380.894 54.1504H378.403V50.8252H382.153ZM373.862 62.1777L370.479 58.75V54.1504L373.818 50.8252H377.144V54.1504H375.063L373.818 55.4102V57.8125L375.063 58.75H377.144L377.158 62.1777H373.862ZM377.568 66.6895V70.0146H373.818L370.479 66.6895V64.5947H373.818V65.6348L374.873 66.748L377.568 66.6895ZM378.418 62.0898L378.403 58.75H382.227L385.083 61.2109V67.0703L382.212 70.0146H378.418V66.6895H380.498L381.743 65.4297V63.3496L380.41 62.0898H378.418ZM389.521 66.6602V50.8252H392.861V65.415C392.861 66.2451 393.413 66.6602 394.517 66.6602V70H392.861C392.51 70 391.396 68.8867 389.521 66.6602ZM405.356 65.415V50.8252H408.696V66.6602C408.696 67.0117 407.583 68.125 405.356 70H403.701V66.6602C404.805 66.6602 405.356 66.2451 405.356 65.415ZM397.446 65.415V56.6553H400.771V65.415C400.771 66.2451 401.328 66.6602 402.441 66.6602V70H400.771L399.116 68.7549L397.446 70H395.776V66.6602C396.89 66.6602 397.446 66.2451 397.446 65.415ZM417.104 50.8252H420.444V54.1504H418.35L417.104 55.4102V58.75H420.444V62.0752H417.104V70H413.765V54.1504L417.104 50.8252ZM421.689 54.1504V50.8252H425.439L428.779 54.1504V70H425.439V62.0752H421.689L421.704 58.7354L425.439 58.75V55.4102L424.194 54.1504H421.689ZM434.272 70V50.8252H440.952V54.1504H437.612V60.8301H440.952V64.1699H437.612V70H434.272ZM442.197 54.1504V50.8252H445.947C446.299 50.8252 447.412 51.9336 449.287 54.1504V59.5703C449.287 61.0352 448.174 62.5684 445.947 64.1699H442.197V60.8301H444.702C445.122 60.8301 445.537 60.4102 445.947 59.5703V55.4102C445.947 54.9902 445.532 54.5703 444.702 54.1504H442.197Z" fill="white"/>
<defs>
<filter id="filter0_f_602_89" x="476.924" y="0.923584" width="56.4004" height="109.202" filterUnits="userSpaceOnUse" color-interpolation-filters="sRGB">
<feFlood flood-opacity="0" result="BackgroundImageFix"/>
<feBlend mode="normal" in="SourceGraphic" in2="BackgroundImageFix" result="shape"/>
<feGaussianBlur stdDeviation="10" result="effect1_foregroundBlur_602_89"/>
</filter>
<filter id="filter1_f_602_89" x="7.92383" y="2.92358" width="56.4004" height="109.202" filterUnits="userSpaceOnUse" color-interpolation-filters="sRGB">
<feFlood flood-opacity="0" result="BackgroundImageFix"/>
<feBlend mode="normal" in="SourceGraphic" in2="BackgroundImageFix" result="shape"/>
<feGaussianBlur stdDeviation="10" result="effect1_foregroundBlur_602_89"/>
</filter>
<linearGradient id="paint0_linear_602_89" x1="510.999" y1="90.0002" x2="30" y2="90.0002" gradientUnits="userSpaceOnUse">
<stop stop-color="#2E335F"/>
<stop offset="0.328514" stop-color="#542A8A" stop-opacity="0.67"/>
<stop offset="0.620204" stop-color="#542A8A" stop-opacity="0.67"/>
<stop offset="0.96711" stop-color="#2E335F"/>
</linearGradient>
</defs>
</svg>
