<svg width="38" height="38" viewBox="0 0 38 38" fill="none" xmlns="http://www.w3.org/2000/svg">
<g clip-path="url(#clip0_351_684)">
<path d="M28.5 25.4598C27.2967 25.4598 26.22 25.9348 25.3967 26.679L14.1075 20.1082C14.1867 19.744 14.25 19.3798 14.25 18.9998C14.25 18.6198 14.1867 18.2557 14.1075 17.8915L25.27 11.384C26.125 12.1757 27.2492 12.6665 28.5 12.6665C31.1283 12.6665 33.25 10.5448 33.25 7.9165C33.25 5.28817 31.1283 3.1665 28.5 3.1665C25.8717 3.1665 23.75 5.28817 23.75 7.9165C23.75 8.2965 23.8133 8.66067 23.8925 9.02484L12.73 15.5323C11.875 14.7407 10.7508 14.2498 9.5 14.2498C6.87167 14.2498 4.75 16.3715 4.75 18.9998C4.75 21.6282 6.87167 23.7498 9.5 23.7498C10.7508 23.7498 11.875 23.259 12.73 22.4673L24.0033 29.054C23.9242 29.3865 23.8767 29.7348 23.8767 30.0832C23.8767 32.6323 25.9508 34.7065 28.5 34.7065C31.0492 34.7065 33.1233 32.6323 33.1233 30.0832C33.1233 27.534 31.0492 25.4598 28.5 25.4598Z" fill="white"/>
</g>
<defs>
<clipPath id="clip0_351_684">
<rect width="38" height="38" fill="white"/>
</clipPath>
</defs>
</svg>
